<?xml version="1.0" standalone="no"?>
<!DOCTYPE svg PUBLIC "-//W3C//DTD SVG 20010904//EN"
 "http://www.w3.org/TR/2001/REC-SVG-20010904/DTD/svg10.dtd">
<svg version="1.0" xmlns="http://www.w3.org/2000/svg"
 width="200.000000pt" height="200.000000pt" viewBox="0 0 200.000000 200.000000"
 preserveAspectRatio="xMidYMid meet">
<metadata>
Created by potrace 1.15, written by Peter Selinger 2001-2017
</metadata>
<g transform="translate(0.000000,200.000000) scale(0.100000,-0.100000)"
fill="#000000" stroke="none">
<path d="M992 1855 c-6 -22 -23 -87 -37 -145 -15 -58 -28 -107 -31 -109 -2 -2
-14 20 -26 50 l-23 54 -7 -40 c-4 -22 -7 -73 -7 -112 -1 -40 -5 -73 -10 -73
-4 0 -72 65 -150 145 -77 80 -141 139 -141 133 0 -7 18 -73 39 -145 21 -73 37
-133 35 -133 -2 0 -23 14 -46 30 -23 17 -43 28 -45 26 -2 -2 19 -49 46 -105
28 -55 45 -98 38 -96 -6 2 -93 27 -192 55 -99 28 -187 53 -195 56 -8 3 35 -45
95 -106 l110 -111 -58 6 c-31 4 -57 5 -57 2 0 -2 43 -33 96 -68 l97 -64 -202
-50 c-110 -27 -201 -52 -201 -55 0 -3 64 -22 143 -41 l142 -36 -53 -25 c-46
-22 -50 -26 -30 -32 13 -3 51 -6 84 -6 34 0 75 -3 92 -6 31 -6 31 -6 -121
-154 l-152 -148 135 39 c74 21 141 39 148 39 8 0 1 -18 -18 -45 -17 -25 -28
-45 -25 -45 3 0 51 23 106 51 79 39 100 46 95 32 -38 -131 -106 -374 -106
-382 0 -6 48 37 106 97 l106 107 -6 -57 c-4 -32 -4 -58 -1 -58 2 0 33 43 69
95 l63 96 48 -193 c26 -106 51 -199 54 -206 4 -7 22 51 41 128 19 77 37 140
40 140 3 0 17 -21 30 -47 l25 -48 2 45 c2 25 5 78 9 118 l6 73 149 -153 148
-153 -14 50 c-7 28 -25 90 -39 140 -14 49 -26 93 -26 98 0 4 20 -6 45 -23 25
-17 45 -26 45 -20 0 6 -20 51 -45 100 -25 49 -45 91 -45 94 0 2 90 -22 200
-54 110 -32 200 -56 200 -53 0 2 -48 51 -107 109 l-108 104 65 -6 65 -5 -97
63 c-54 35 -98 66 -98 69 0 4 88 29 195 55 107 27 195 51 195 54 0 3 -64 22
-142 41 l-143 36 54 25 c66 30 54 38 -57 39 -131 1 -131 -3 32 157 80 79 146
145 146 146 0 2 -60 -14 -132 -35 -73 -21 -139 -39 -145 -39 -7 0 3 23 24 51
l36 51 -102 -52 c-57 -28 -106 -49 -108 -46 -5 5 9 58 87 331 l20 70 -110
-110 -109 -109 6 57 c3 31 3 57 0 57 -3 0 -31 -40 -63 -90 -32 -49 -61 -90
-64 -90 -3 0 -28 91 -56 203 -50 198 -51 201 -62 162z m44 -545 c9 9 14 4 19
-19 4 -17 10 -31 14 -31 5 0 32 25 61 56 l53 56 -6 -62 c-4 -51 -3 -61 9 -56
12 5 14 -1 8 -29 -3 -19 -2 -35 2 -35 5 0 38 9 73 20 36 11 66 18 68 16 2 -1
-11 -22 -28 -46 -24 -33 -28 -44 -18 -51 11 -6 8 -13 -10 -32 -24 -27 -22 -31
24 -41 17 -4 48 -12 70 -18 l40 -10 -54 -24 c-43 -19 -51 -27 -42 -38 9 -11 5
-15 -24 -20 -19 -4 -35 -10 -35 -14 0 -3 26 -31 58 -60 l57 -53 -62 6 c-54 5
-62 4 -57 -10 7 -18 8 -18 -34 -6 -17 5 -32 7 -32 3 0 -4 9 -36 20 -72 11 -36
20 -69 20 -73 0 -4 -21 7 -47 24 -32 22 -48 29 -51 20 -3 -8 -13 -4 -32 14
-32 31 -29 34 -51 -67 -7 -32 -16 -58 -20 -58 -4 0 -15 20 -26 45 -13 33 -22
43 -34 40 -13 -4 -18 3 -24 32 l-7 37 -59 -64 -59 -65 6 63 c6 57 5 62 -11 56
-17 -7 -17 2 2 54 7 16 -15 15 -63 -1 -22 -8 -52 -17 -68 -21 l-28 -7 37 51
c30 41 33 50 19 50 -15 0 -13 5 11 30 31 33 33 31 -55 51 -30 6 -59 14 -64 17
-5 3 15 18 45 33 30 15 48 28 42 29 -28 1 -11 18 23 25 l37 6 -59 61 -59 60
59 -7 c51 -6 58 -5 53 9 -7 18 1 20 37 6 32 -12 33 -4 6 81 -10 35 -18 64 -16
66 1 2 22 -11 46 -28 33 -24 44 -28 51 -18 6 11 14 8 33 -10 14 -14 28 -23 30
-20 2 2 11 38 21 79 l18 75 26 -58 c20 -44 29 -55 37 -47z"/>
</g>
</svg>
