<svg id="svg" version="1.1" width="400" height="400" viewBox="0 0 400 400" xmlns="http://www.w3.org/2000/svg" xmlns:xlink="http://www.w3.org/1999/xlink" ><g id="svgg"><path id="path0" d="M69.399 52.498 C 69.279 52.994,69.231 116.940,69.291 194.600 L 69.400 335.800 108.400 335.800 L 147.400 335.800 147.501 282.239 C 147.575 243.372,147.726 228.530,148.052 228.138 C 148.425 227.688,156.894 227.614,198.550 227.698 L 248.600 227.800 248.701 281.361 C 248.775 320.136,248.926 335.070,249.250 335.461 C 249.717 336.023,325.521 336.312,326.967 335.757 C 327.803 335.436,327.955 52.915,327.120 52.080 C 326.424 51.384,249.976 51.384,249.280 52.080 C 248.912 52.448,248.800 64.759,248.800 105.056 C 248.800 136.968,248.654 157.643,248.428 157.783 C 247.933 158.089,149.025 158.061,148.226 157.755 C 147.667 157.540,147.593 152.091,147.501 104.658 L 147.400 51.800 108.508 51.698 L 69.616 51.596 69.399 52.498 " stroke="none" fill="#010101" fill-rule="evenodd"></path></g></svg>